<svg id="visual" viewBox="0 0 960 540" width="960" height="540" xmlns="http://www.w3.org/2000/svg" xmlns:xlink="http://www.w3.org/1999/xlink" version="1.1"><rect width="960" height="540" fill="#191e28"></rect><g><g transform="translate(327 92)"><path d="M0 -67.2L58.2 -33.6L58.2 33.6L0 67.2L-58.2 33.6L-58.2 -33.6Z" fill="#c675ff"></path></g><g transform="translate(183 449)"><path d="M0 -20L17.3 -10L17.3 10L0 20L-17.3 10L-17.3 -10Z" fill="#c675ff"></path></g><g transform="translate(315 308)"><path d="M0 -8L6.9 -4L6.9 4L0 8L-6.9 4L-6.9 -4Z" fill="#c675ff"></path></g><g transform="translate(186 227)"><path d="M0 -37L32 -18.5L32 18.5L0 37L-32 18.5L-32 -18.5Z" fill="#c675ff"></path></g><g transform="translate(493 111)"><path d="M0 -33L28.6 -16.5L28.6 16.5L0 33L-28.6 16.5L-28.6 -16.5Z" fill="#c675ff"></path></g><g transform="translate(635 285)"><path d="M0 -21L18.2 -10.5L18.2 10.5L0 21L-18.2 10.5L-18.2 -10.5Z" fill="#c675ff"></path></g><g transform="translate(665 75)"><path d="M0 -46L39.8 -23L39.8 23L0 46L-39.8 23L-39.8 -23Z" fill="#c675ff"></path></g><g transform="translate(809 401)"><path d="M0 -37L32 -18.5L32 18.5L0 37L-32 18.5L-32 -18.5Z" fill="#c675ff"></path></g></g></svg>