<svg id="visual" viewBox="0 0 1920 1080" width="1920" height="1080"
    xmlns="http://www.w3.org/2000/svg" xmlns:xlink="http://www.w3.org/1999/xlink" version="1.1">
    <rect width="1920" height="1080" fill="#191e28"></rect>
    <g>
        <g transform="translate(432 385)">
            <path
                d="M156.7 -48.9C179.7 19.9 158.9 105 102.7 147.2C46.4 189.5 -45.2 188.9 -104.6 145.4C-164.1 101.8 -191.4 15.4 -168.6 -53.1C-145.8 -121.6 -72.9 -172.1 -3 -171.1C66.9 -170.1 133.7 -117.7 156.7 -48.9Z"
                stroke="#c675ff" fill="none" stroke-width="20"></path>
        </g>
        <g transform="translate(1771 604)">
            <path
                d="M122.5 -37.2C140.3 14.9 123.4 80.8 79.1 114.2C34.8 147.7 -36.9 148.6 -83.6 114.8C-130.2 81 -151.7 12.3 -133.6 -40.2C-115.5 -92.8 -57.7 -129.2 -2.7 -128.4C52.4 -127.5 104.8 -89.3 122.5 -37.2Z"
                stroke="#c675ff" fill="none" stroke-width="20"></path>
        </g>
        <g transform="translate(1044 477)">
            <path
                d="M85.1 -26.1C96.7 8.2 83.3 52.2 53.5 73.9C23.7 95.5 -22.4 94.9 -52.1 73C-81.8 51.1 -95.1 8 -83.6 -26.1C-72.2 -60.1 -36.1 -85 0.3 -85.1C36.7 -85.2 73.4 -60.5 85.1 -26.1Z"
                stroke="#c675ff" fill="none" stroke-width="20"></path>
        </g>
        <g transform="translate(1356 996)">
            <path
                d="M144 -44.7C163.5 13.3 140.3 87.3 93.3 119.3C46.3 151.3 -24.6 141.4 -76.2 104.1C-127.7 66.8 -160 2.1 -144.1 -50.9C-128.2 -104 -64.1 -145.4 -0.9 -145.1C62.2 -144.8 124.5 -102.7 144 -44.7Z"
                stroke="#c675ff" fill="none" stroke-width="20"></path>
        </g>
        <g transform="translate(683 909)">
            <path
                d="M90 -30.4C100.2 2.3 80.9 43.5 48.5 67.1C16.1 90.7 -29.4 96.8 -60.1 76.1C-90.8 55.3 -106.9 7.7 -94.4 -28C-81.9 -63.8 -41 -87.6 -0.5 -87.4C39.9 -87.2 79.7 -63 90 -30.4Z"
                stroke="#c675ff" fill="none" stroke-width="20"></path>
        </g>
        <!-- <g transform="translate(768 34)">
            <path
                d="M107.4 -39.5C119.3 1.8 95.4 50.2 58.6 75.8C21.8 101.4 -28 104.2 -59.9 81.3C-91.8 58.4 -105.8 9.8 -92.8 -33C-79.9 -75.7 -39.9 -112.4 3.9 -113.7C47.7 -115 95.4 -80.7 107.4 -39.5Z"
                stroke="#c675ff" fill="none" stroke-width="20"></path>
        </g> -->
    </g>
</svg>