<svg id="visual" viewBox="0 0 900 600" width="900" height="600" xmlns="http://www.w3.org/2000/svg"
    xmlns:xlink="http://www.w3.org/1999/xlink" version="1.1">
    <g transform="translate(465.1420695537791 280.42903402627417)">
        <path id = 'pathAfter'
            d="M100.8 -170.4C135.6 -154.5 172.1 -137.5 175.8 -108.9C179.5 -80.3 150.2 -40.2 134.9 -8.8C119.6 22.5 118.3 45 122 86.4C125.8 127.8 134.6 188.2 115.2 216.4C95.7 244.7 47.8 240.8 9.8 224C-28.3 207.1 -56.7 177.1 -100 162.6C-143.3 148.1 -201.5 149.1 -206.1 124.5C-210.7 100 -161.6 50 -161 0.3C-160.5 -49.3 -208.4 -98.7 -204 -123.5C-199.6 -148.3 -142.8 -148.6 -100.1 -160C-57.3 -171.3 -28.7 -193.7 2.2 -197.4C33 -201.2 66 -186.3 100.8 -170.4"
            fill="#BB004B">
        </path>
    </g>
</svg>