<svg id="visual" viewBox="0 0 900 600" width="900" height="600" xmlns="http://www.w3.org/2000/svg"
    xmlns:xlink="http://www.w3.org/1999/xlink" version="1.1">
    <g transform="translate(425.17812071839586 297.4107165965745)">
        <path id = 'pathBefore'
            d="M126.8 -222.6C159.3 -200.9 177.1 -156.7 191.8 -115.8C206.6 -75 218.3 -37.5 217.3 -0.6C216.3 36.3 202.5 72.7 183.7 106.4C164.9 140.2 140.9 171.4 109.5 198.4C78 225.4 39 248.2 -2.6 252.7C-44.2 257.2 -88.3 243.3 -118.4 215.5C-148.4 187.7 -164.3 145.8 -167.2 107.6C-170.1 69.3 -160.1 34.7 -154 3.5C-147.9 -27.7 -145.8 -55.3 -145.8 -98.6C-145.8 -141.9 -147.9 -200.9 -124 -227.5C-100 -254.2 -50 -248.6 -1.4 -246.1C47.2 -243.7 94.3 -244.4 126.8 -222.6"
            fill="#BB004B">
        </path>
    </g>
</svg>