<svg id="visual" viewBox="0 0 900 600" width="900" height="600" xmlns="http://www.w3.org/2000/svg" xmlns:xlink="http://www.w3.org/1999/xlink" version="1.1"><rect x="0" y="0" width="900" height="600" fill="#ffffff"></rect><defs><linearGradient id="grad1_0" x1="33.3%" y1="0%" x2="100%" y2="100%"><stop offset="20%" stop-color="#ff77ff" stop-opacity="1"></stop><stop offset="80%" stop-color="#ff77ff" stop-opacity="1"></stop></linearGradient></defs><defs><linearGradient id="grad1_1" x1="33.3%" y1="0%" x2="100%" y2="100%"><stop offset="20%" stop-color="#ff77ff" stop-opacity="1"></stop><stop offset="80%" stop-color="#6959a5" stop-opacity="1"></stop></linearGradient></defs><defs><linearGradient id="grad1_2" x1="33.3%" y1="0%" x2="100%" y2="100%"><stop offset="20%" stop-color="#1f2532" stop-opacity="1"></stop><stop offset="80%" stop-color="#6959a5" stop-opacity="1"></stop></linearGradient></defs><defs><linearGradient id="grad2_0" x1="0%" y1="0%" x2="66.7%" y2="100%"><stop offset="20%" stop-color="#ff77ff" stop-opacity="1"></stop><stop offset="80%" stop-color="#ff77ff" stop-opacity="1"></stop></linearGradient></defs><defs><linearGradient id="grad2_1" x1="0%" y1="0%" x2="66.7%" y2="100%"><stop offset="20%" stop-color="#6959a5" stop-opacity="1"></stop><stop offset="80%" stop-color="#ff77ff" stop-opacity="1"></stop></linearGradient></defs><defs><linearGradient id="grad2_2" x1="0%" y1="0%" x2="66.7%" y2="100%"><stop offset="20%" stop-color="#6959a5" stop-opacity="1"></stop><stop offset="80%" stop-color="#1f2532" stop-opacity="1"></stop></linearGradient></defs><g transform="translate(900, 0)"><path d="M0 270.4C-50.5 265.2 -101 260 -135.2 234.2C-169.4 208.4 -187.2 162 -207 119.5C-226.8 77 -248.6 38.5 -270.4 0L0 0Z" fill="#39416c"></path><path d="M0 180.3C-33.7 176.8 -67.4 173.3 -90.1 156.1C-112.9 138.9 -124.8 108 -138 79.7C-151.2 51.4 -165.7 25.7 -180.3 0L0 0Z" fill="#ad6cd8"></path><path d="M0 90.1C-16.8 88.4 -33.7 86.7 -45.1 78.1C-56.5 69.5 -62.4 54 -69 39.8C-75.6 25.7 -82.9 12.8 -90.1 0L0 0Z" fill="#ff77ff"></path></g><g transform="translate(0, 600)"><path d="M0 -270.4C44.4 -258.8 88.8 -247.1 130.5 -226C172.2 -205 211.3 -174.5 234.2 -135.2C257.1 -96 263.7 -48 270.4 0L0 0Z" fill="#39416c"></path><path d="M0 -180.3C29.6 -172.5 59.2 -164.7 87 -150.7C114.8 -136.6 140.9 -116.3 156.1 -90.1C171.4 -64 175.8 -32 180.3 0L0 0Z" fill="#ad6cd8"></path><path d="M0 -90.1C14.8 -86.3 29.6 -82.4 43.5 -75.3C57.4 -68.3 70.4 -58.2 78.1 -45.1C85.7 -32 87.9 -16 90.1 0L0 0Z" fill="#ff77ff"></path></g></svg>