<svg id="visual" viewBox="0 0 900 600" width="900" height="600" xmlns="http://www.w3.org/2000/svg" xmlns:xlink="http://www.w3.org/1999/xlink" version="1.1"><rect x="0" y="0" width="900" height="600" fill="#1f2532"></rect><g fill="none" stroke="#ff77ff" stroke-width="2"><circle r="12" cx="834" cy="171"></circle><circle r="6" cx="623" cy="93"></circle><circle r="5" cx="599" cy="428"></circle><circle r="9" cx="381" cy="364"></circle><circle r="9" cx="693" cy="371"></circle><circle r="5" cx="278" cy="286"></circle><circle r="5" cx="464" cy="70"></circle><circle r="9" cx="624" cy="216"></circle><circle r="10" cx="23" cy="94"></circle><circle r="8" cx="620" cy="258"></circle><circle r="5" cx="94" cy="369"></circle><circle r="6" cx="310" cy="576"></circle><circle r="5" cx="853" cy="360"></circle><circle r="10" cx="84" cy="254"></circle><circle r="9" cx="229" cy="548"></circle><circle r="8" cx="479" cy="379"></circle><circle r="5" cx="18" cy="346"></circle><circle r="5" cx="544" cy="169"></circle><circle r="5" cx="29" cy="182"></circle><circle r="9" cx="725" cy="452"></circle><circle r="6" cx="48" cy="392"></circle><circle r="6" cx="748" cy="361"></circle><circle r="5" cx="28" cy="511"></circle><circle r="5" cx="599" cy="74"></circle><circle r="7" cx="392" cy="506"></circle><circle r="6" cx="330" cy="502"></circle><circle r="10" cx="194" cy="370"></circle><circle r="10" cx="484" cy="327"></circle><circle r="9" cx="659" cy="331"></circle><circle r="6" cx="153" cy="234"></circle><circle r="9" cx="530" cy="585"></circle><circle r="8" cx="639" cy="312"></circle><circle r="10" cx="420" cy="211"></circle><circle r="9" cx="183" cy="249"></circle><circle r="9" cx="367" cy="294"></circle><circle r="9" cx="376" cy="572"></circle><circle r="9" cx="327" cy="38"></circle><circle r="7" cx="816" cy="204"></circle><circle r="5" cx="286" cy="69"></circle><circle r="5" cx="285" cy="538"></circle><circle r="9" cx="759" cy="557"></circle><circle r="9" cx="33" cy="465"></circle><circle r="9" cx="637" cy="502"></circle><circle r="9" cx="533" cy="361"></circle><circle r="6" cx="15" cy="438"></circle><circle r="6" cx="56" cy="560"></circle><circle r="7" cx="141" cy="23"></circle><circle r="9" cx="58" cy="263"></circle><circle r="10" cx="249" cy="386"></circle><circle r="8" cx="786" cy="510"></circle><circle r="6" cx="268" cy="217"></circle><circle r="9" cx="807" cy="427"></circle><circle r="5" cx="795" cy="380"></circle><circle r="10" cx="460" cy="25"></circle><circle r="9" cx="403" cy="559"></circle><circle r="10" cx="66" cy="220"></circle><circle r="10" cx="130" cy="427"></circle><circle r="8" cx="101" cy="158"></circle><circle r="10" cx="766" cy="252"></circle><circle r="8" cx="96" cy="577"></circle><circle r="10" cx="412" cy="252"></circle><circle r="5" cx="530" cy="206"></circle><circle r="9" cx="866" cy="409"></circle><circle r="5" cx="569" cy="226"></circle><circle r="8" cx="90" cy="91"></circle><circle r="10" cx="212" cy="27"></circle><circle r="7" cx="233" cy="583"></circle><circle r="8" cx="459" cy="224"></circle><circle r="6" cx="183" cy="164"></circle><circle r="5" cx="661" cy="282"></circle><circle r="8" cx="235" cy="333"></circle><circle r="9" cx="155" cy="78"></circle><circle r="10" cx="29" cy="126"></circle><circle r="9" cx="304" cy="454"></circle><circle r="8" cx="555" cy="428"></circle><circle r="10" cx="865" cy="233"></circle><circle r="6" cx="766" cy="215"></circle><circle r="6" cx="603" cy="507"></circle><circle r="5" cx="32" cy="298"></circle><circle r="7" cx="362" cy="180"></circle><circle r="6" cx="49" cy="430"></circle><circle r="10" cx="485" cy="554"></circle><circle r="7" cx="804" cy="101"></circle><circle r="9" cx="532" cy="514"></circle><circle r="5" cx="129" cy="156"></circle><circle r="7" cx="691" cy="15"></circle><circle r="7" cx="177" cy="104"></circle><circle r="6" cx="68" cy="312"></circle><circle r="10" cx="150" cy="582"></circle><circle r="5" cx="374" cy="149"></circle><circle r="9" cx="848" cy="18"></circle><circle r="7" cx="252" cy="358"></circle><circle r="10" cx="460" cy="287"></circle><circle r="7" cx="755" cy="137"></circle><circle r="10" cx="576" cy="286"></circle><circle r="9" cx="691" cy="123"></circle><circle r="7" cx="103" cy="129"></circle><circle r="8" cx="283" cy="569"></circle><circle r="7" cx="139" cy="394"></circle><circle r="5" cx="259" cy="84"></circle><circle r="6" cx="82" cy="478"></circle><circle r="10" cx="239" cy="458"></circle><circle r="5" cx="639" cy="427"></circle><circle r="10" cx="698" cy="518"></circle><circle r="6" cx="655" cy="35"></circle><circle r="5" cx="23" cy="253"></circle><circle r="8" cx="798" cy="151"></circle><circle r="10" cx="872" cy="572"></circle><circle r="5" cx="651" cy="219"></circle><circle r="9" cx="526" cy="263"></circle><circle r="5" cx="63" cy="356"></circle><circle r="6" cx="286" cy="412"></circle><circle r="5" cx="600" cy="128"></circle><circle r="6" cx="277" cy="106"></circle><circle r="8" cx="493" cy="20"></circle><circle r="9" cx="305" cy="234"></circle><circle r="10" cx="162" cy="492"></circle><circle r="5" cx="178" cy="63"></circle><circle r="8" cx="253" cy="521"></circle><circle r="10" cx="482" cy="482"></circle><circle r="10" cx="702" cy="75"></circle><circle r="7" cx="386" cy="477"></circle><circle r="10" cx="834" cy="442"></circle><circle r="8" cx="679" cy="468"></circle><circle r="7" cx="679" cy="242"></circle><circle r="5" cx="314" cy="129"></circle><circle r="5" cx="138" cy="460"></circle><circle r="8" cx="603" cy="477"></circle><circle r="10" cx="808" cy="317"></circle><circle r="9" cx="54" cy="30"></circle><circle r="10" cx="387" cy="391"></circle><circle r="10" cx="134" cy="123"></circle><circle r="5" cx="808" cy="533"></circle><circle r="9" cx="654" cy="571"></circle><circle r="6" cx="412" cy="462"></circle><circle r="6" cx="554" cy="470"></circle><circle r="6" cx="715" cy="273"></circle><circle r="9" cx="412" cy="72"></circle><circle r="7" cx="792" cy="291"></circle><circle r="5" cx="214" cy="417"></circle><circle r="9" cx="429" cy="184"></circle><circle r="8" cx="692" cy="153"></circle><circle r="8" cx="94" cy="198"></circle><circle r="9" cx="665" cy="65"></circle><circle r="7" cx="861" cy="320"></circle><circle r="7" cx="128" cy="193"></circle><circle r="8" cx="323" cy="417"></circle><circle r="7" cx="266" cy="261"></circle><circle r="8" cx="616" cy="575"></circle><circle r="9" cx="170" cy="459"></circle><circle r="9" cx="796" cy="345"></circle><circle r="9" cx="469" cy="143"></circle><circle r="10" cx="327" cy="188"></circle><circle r="7" cx="741" cy="281"></circle><circle r="5" cx="377" cy="445"></circle><circle r="6" cx="103" cy="527"></circle><circle r="5" cx="399" cy="131"></circle><circle r="6" cx="357" cy="247"></circle><circle r="8" cx="400" cy="97"></circle><circle r="10" cx="867" cy="39"></circle><circle r="6" cx="833" cy="476"></circle><circle r="6" cx="152" cy="273"></circle><circle r="7" cx="754" cy="61"></circle><circle r="10" cx="848" cy="532"></circle><circle r="10" cx="132" cy="96"></circle><circle r="10" cx="214" cy="101"></circle><circle r="7" cx="555" cy="386"></circle><circle r="10" cx="85" cy="282"></circle><circle r="5" cx="600" cy="343"></circle><circle r="6" cx="855" cy="89"></circle><circle r="7" cx="769" cy="419"></circle><circle r="6" cx="437" cy="362"></circle><circle r="5" cx="60" cy="117"></circle><circle r="7" cx="614" cy="164"></circle><circle r="7" cx="157" cy="327"></circle><circle r="8" cx="156" cy="535"></circle><circle r="7" cx="554" cy="94"></circle><circle r="8" cx="168" cy="360"></circle><circle r="7" cx="434" cy="550"></circle><circle r="9" cx="421" cy="395"></circle><circle r="6" cx="667" cy="135"></circle><circle r="8" cx="726" cy="144"></circle><circle r="10" cx="278" cy="181"></circle><circle r="7" cx="249" cy="136"></circle><circle r="6" cx="487" cy="198"></circle><circle r="6" cx="211" cy="231"></circle><circle r="8" cx="354" cy="27"></circle><circle r="7" cx="719" cy="582"></circle><circle r="5" cx="784" cy="550"></circle><circle r="8" cx="199" cy="522"></circle><circle r="6" cx="210" cy="567"></circle><circle r="10" cx="560" cy="263"></circle><circle r="9" cx="607" cy="16"></circle><circle r="9" cx="432" cy="329"></circle><circle r="6" cx="728" cy="489"></circle><circle r="10" cx="819" cy="66"></circle><circle r="10" cx="663" cy="443"></circle><circle r="6" cx="66" cy="176"></circle><circle r="6" cx="789" cy="73"></circle><circle r="5" cx="385" cy="271"></circle><circle r="10" cx="491" cy="440"></circle><circle r="6" cx="567" cy="554"></circle><circle r="6" cx="881" cy="353"></circle><circle r="10" cx="23" cy="400"></circle><circle r="5" cx="238" cy="213"></circle><circle r="8" cx="20" cy="573"></circle><circle r="6" cx="887" cy="271"></circle><circle r="8" cx="119" cy="318"></circle><circle r="6" cx="335" cy="281"></circle><circle r="9" cx="805" cy="474"></circle><circle r="10" cx="688" cy="430"></circle><circle r="6" cx="238" cy="248"></circle><circle r="5" cx="520" cy="389"></circle><circle r="10" cx="850" cy="133"></circle><circle r="6" cx="24" cy="26"></circle><circle r="10" cx="352" cy="374"></circle><circle r="5" cx="565" cy="61"></circle><circle r="8" cx="876" cy="512"></circle><circle r="6" cx="486" cy="112"></circle><circle r="9" cx="421" cy="287"></circle><circle r="10" cx="730" cy="176"></circle><circle r="9" cx="733" cy="233"></circle><circle r="8" cx="532" cy="559"></circle><circle r="9" cx="301" cy="484"></circle><circle r="7" cx="242" cy="414"></circle><circle r="7" cx="867" cy="207"></circle><circle r="9" cx="565" cy="141"></circle><circle r="5" cx="580" cy="408"></circle><circle r="5" cx="276" cy="438"></circle><circle r="8" cx="111" cy="244"></circle><circle r="6" cx="633" cy="548"></circle><circle r="10" cx="611" cy="392"></circle><circle r="5" cx="777" cy="43"></circle><circle r="6" cx="408" cy="345"></circle><circle r="5" cx="770" cy="17"></circle><circle r="8" cx="367" cy="419"></circle><circle r="7" cx="526" cy="72"></circle></g></svg>