<svg id="visual" viewBox="0 0 900 450" width="900" height="450" xmlns="http://www.w3.org/2000/svg" xmlns:xlink="http://www.w3.org/1999/xlink" version="1.1"><rect x="0" y="0" width="900" height="450" fill="#191e28"></rect><path d="M0 69L37.5 107.8C75 146.7 150 224.3 225 232.7C300 241 375 180 450 167.5C525 155 600 191 675 199.7C750 208.3 825 189.7 862.5 180.3L900 171L900 0L862.5 0C825 0 750 0 675 0C600 0 525 0 450 0C375 0 300 0 225 0C150 0 75 0 37.5 0L0 0Z" fill="#2d3549" stroke-linecap="round" stroke-linejoin="miter"></path></svg>