<svg id="visual" viewBox="0 0 900 450" width="900" height="450" xmlns="http://www.w3.org/2000/svg" xmlns:xlink="http://www.w3.org/1999/xlink" version="1.1"><rect x="0" y="0" width="900" height="450" fill="#191e28"></rect><path d="M0 168L37.5 178C75 188 150 208 225 220.3C300 232.7 375 237.3 450 238C525 238.7 600 235.3 675 230.5C750 225.7 825 219.3 862.5 216.2L900 213L900 0L862.5 0C825 0 750 0 675 0C600 0 525 0 450 0C375 0 300 0 225 0C150 0 75 0 37.5 0L0 0Z" fill="#2d3549" stroke-linecap="round" stroke-linejoin="miter"></path></svg>