<svg id="visual" viewBox="0 0 900 900" width="900" height="900" xmlns="http://www.w3.org/2000/svg" xmlns:xlink="http://www.w3.org/1999/xlink" version="1.1"><rect x="0" y="0" width="900" height="900" fill="#191e28"></rect><g fill="none" stroke="#c675ff" stroke-width="3"><circle r="51" cx="770" cy="439"></circle><circle r="2" cx="308" cy="892"></circle><circle r="6" cx="749" cy="260"></circle><circle r="3" cx="329" cy="507"></circle><circle r="17" cx="175" cy="351"></circle><circle r="18" cx="60" cy="67"></circle><circle r="49" cx="204" cy="756"></circle><circle r="21" cx="677" cy="612"></circle><circle r="36" cx="870" cy="858"></circle><circle r="4" cx="157" cy="478"></circle><circle r="28" cx="411" cy="137"></circle><circle r="46" cx="42" cy="249"></circle><circle r="8" cx="894" cy="242"></circle><circle r="25" cx="647" cy="60"></circle><circle r="27" cx="452" cy="852"></circle><circle r="12" cx="654" cy="738"></circle><circle r="29" cx="388" cy="715"></circle><circle r="32" cx="71" cy="867"></circle><circle r="34" cx="773" cy="730"></circle><circle r="10" cx="766" cy="127"></circle></g></svg>