<svg id="visual" viewBox="0 0 960 540" width="960" height="540" xmlns="http://www.w3.org/2000/svg"
    xmlns:xlink="http://www.w3.org/1999/xlink" version="1.1">
    <path
        d="M0 93L87 44L175 141L262 98L349 66L436 66L524 87L611 55L698 147L785 60L873 104L960 114L960 0L873 0L785 0L698 0L611 0L524 0L436 0L349 0L262 0L175 0L87 0L0 0Z"
        fill="#2d3549"></path>
    <path
        d="M0 239L87 222L175 309L262 320L349 271L436 163L524 244L611 206L698 228L785 158L873 260L960 190L960 112L873 102L785 58L698 145L611 53L524 85L436 64L349 64L262 96L175 139L87 42L0 91Z"
        fill="#282f40"></path>
    <path
        d="M0 406L87 368L175 428L262 438L349 411L436 406L524 406L611 455L698 411L785 401L873 406L960 374L960 188L873 258L785 156L698 226L611 204L524 242L436 161L349 269L262 318L175 307L87 220L0 237Z"
        fill="#232938"></path>
    <path
        d="M0 509L87 482L175 498L262 487L349 498L436 487L524 492L611 492L698 449L785 471L873 487L960 455L960 372L873 404L785 399L698 409L611 453L524 404L436 404L349 409L262 436L175 426L87 366L0 404Z"
        fill="#1e2330"></path>
    <path
        d="M0 541L87 541L175 541L262 541L349 541L436 541L524 541L611 541L698 541L785 541L873 541L960 541L960 453L873 485L785 469L698 447L611 490L524 490L436 485L349 496L262 485L175 496L87 480L0 507Z"
        fill="#191e28"></path>
</svg>