<svg id="visual" viewBox="0 0 960 540" width="960" height="540" xmlns="http://www.w3.org/2000/svg" xmlns:xlink="http://www.w3.org/1999/xlink" version="1.1"><rect x="0" y="0" width="960" height="540" fill="#191e28"></rect><path d="M0 217L137 165L274 150L411 225L549 153L686 147L823 147L960 106L960 541L823 541L686 541L549 541L411 541L274 541L137 541L0 541Z" fill="#c675ff"></path><path d="M0 209L137 204L274 216L411 241L549 141L686 245L823 118L960 216L960 541L823 541L686 541L549 541L411 541L274 541L137 541L0 541Z" fill="#aa71ee"></path><path d="M0 196L137 201L274 222L411 189L549 234L686 245L823 275L960 187L960 541L823 541L686 541L549 541L411 541L274 541L137 541L0 541Z" fill="#906bdc"></path><path d="M0 307L137 270L274 312L411 220L549 315L686 243L823 237L960 284L960 541L823 541L686 541L549 541L411 541L274 541L137 541L0 541Z" fill="#7965c8"></path><path d="M0 267L137 310L274 346L411 246L549 265L686 299L823 245L960 255L960 541L823 541L686 541L549 541L411 541L274 541L137 541L0 541Z" fill="#645eb4"></path><path d="M0 320L137 293L274 324L411 283L549 296L686 338L823 346L960 324L960 541L823 541L686 541L549 541L411 541L274 541L137 541L0 541Z" fill="#51569f"></path><path d="M0 327L137 357L274 339L411 337L549 399L686 332L823 359L960 346L960 541L823 541L686 541L549 541L411 541L274 541L137 541L0 541Z" fill="#414d89"></path><path d="M0 376L137 391L274 375L411 399L549 410L686 428L823 368L960 419L960 541L823 541L686 541L549 541L411 541L274 541L137 541L0 541Z" fill="#354474"></path><path d="M0 449L137 430L274 426L411 422L549 418L686 435L823 445L960 426L960 541L823 541L686 541L549 541L411 541L274 541L137 541L0 541Z" fill="#2c3b5e"></path><path d="M0 443L137 485L274 483L411 479L549 447L686 483L823 474L960 469L960 541L823 541L686 541L549 541L411 541L274 541L137 541L0 541Z" fill="#253149"></path><path d="M0 476L137 503L274 484L411 515L549 513L686 487L823 496L960 476L960 541L823 541L686 541L549 541L411 541L274 541L137 541L0 541Z" fill="#202734"></path></svg>