<svg id="visual" viewBox="0 0 960 540" width="960" height="540" xmlns="http://www.w3.org/2000/svg" xmlns:xlink="http://www.w3.org/1999/xlink" version="1.1"><rect width="960" height="540" fill="#1f2532"></rect><g><g transform="translate(906 145)"><path d="M0 -124L97 -77.3L120.9 27.6L53.8 111.7L-53.8 111.7L-120.9 27.6L-97 -77.3Z" fill="none" stroke="#ff77ff" stroke-width="1"></path></g><g transform="translate(70 504)"><path d="M0 -97L75.8 -60.5L94.6 21.6L42.1 87.4L-42.1 87.4L-94.6 21.6L-75.8 -60.5Z" fill="none" stroke="#ff77ff" stroke-width="1"></path></g><g transform="translate(884 538)"><path d="M0 -119L93 -74.2L116 26.5L51.6 107.2L-51.6 107.2L-116 26.5L-93 -74.2Z" fill="none" stroke="#ff77ff" stroke-width="1"></path></g><g transform="translate(94 101)"><path d="M0 -119L93 -74.2L116 26.5L51.6 107.2L-51.6 107.2L-116 26.5L-93 -74.2Z" stroke="#ff77ff" fill="none" stroke-width="1"></path></g></g></svg>