<svg id="visual" viewBox="0 0 675 900" width="675" height="900" xmlns="http://www.w3.org/2000/svg" xmlns:xlink="http://www.w3.org/1999/xlink" version="1.1"><rect x="0" y="0" width="675" height="900" fill="#2d3549"></rect><path d="M0 492L75 596L150 538L225 632L300 562L375 527L450 633L525 519L600 563L675 563L675 0L600 0L525 0L450 0L375 0L300 0L225 0L150 0L75 0L0 0Z" fill="#272f3f"></path><path d="M0 530L75 524L150 483L225 454L300 408L375 438L450 465L525 410L600 492L675 482L675 0L600 0L525 0L450 0L375 0L300 0L225 0L150 0L75 0L0 0Z" fill="#242b3a"></path><path d="M0 394L75 313L150 365L225 352L300 445L375 321L450 440L525 366L600 353L675 344L675 0L600 0L525 0L450 0L375 0L300 0L225 0L150 0L75 0L0 0Z" fill="#212835"></path><path d="M0 314L75 320L150 284L225 328L300 252L375 293L450 305L525 255L600 248L675 291L675 0L600 0L525 0L450 0L375 0L300 0L225 0L150 0L75 0L0 0Z" fill="#1f2431"></path><path d="M0 188L75 218L150 165L225 203L300 249L375 181L450 152L525 235L600 187L675 225L675 0L600 0L525 0L450 0L375 0L300 0L225 0L150 0L75 0L0 0Z" fill="#1c212c"></path><path d="M0 87L75 115L150 121L225 138L300 57L375 113L450 153L525 51L600 75L675 133L675 0L600 0L525 0L450 0L375 0L300 0L225 0L150 0L75 0L0 0Z" fill="#191e28"></path></svg>