<svg id="visual" viewBox="0 0 900 450" width="900" height="450" xmlns="http://www.w3.org/2000/svg" xmlns:xlink="http://www.w3.org/1999/xlink" version="1.1"><rect x="0" y="0" width="900" height="450" fill="#2d3549"></rect><path d="M0 398L82 414L164 401L245 381L327 419L409 405L491 402L573 367L655 405L736 404L818 393L900 372L900 0L818 0L736 0L655 0L573 0L491 0L409 0L327 0L245 0L164 0L82 0L0 0Z" fill="#2d3549"></path><path d="M0 317L82 340L164 351L245 349L327 349L409 369L491 316L573 367L655 346L736 337L818 306L900 331L900 0L818 0L736 0L655 0L573 0L491 0L409 0L327 0L245 0L164 0L82 0L0 0Z" fill="#2a3143"></path><path d="M0 248L82 258L164 302L245 313L327 283L409 249L491 264L573 268L655 295L736 288L818 250L900 310L900 0L818 0L736 0L655 0L573 0L491 0L409 0L327 0L245 0L164 0L82 0L0 0Z" fill="#262d3e"></path><path d="M0 221L82 250L164 212L245 255L327 205L409 251L491 250L573 251L655 216L736 204L818 214L900 210L900 0L818 0L736 0L655 0L573 0L491 0L409 0L327 0L245 0L164 0L82 0L0 0Z" fill="#232938"></path><path d="M0 170L82 175L164 166L245 164L327 158L409 186L491 163L573 167L655 163L736 177L818 143L900 147L900 0L818 0L736 0L655 0L573 0L491 0L409 0L327 0L245 0L164 0L82 0L0 0Z" fill="#202533"></path><path d="M0 136L82 98L164 116L245 100L327 115L409 127L491 104L573 95L655 91L736 106L818 98L900 123L900 0L818 0L736 0L655 0L573 0L491 0L409 0L327 0L245 0L164 0L82 0L0 0Z" fill="#1c222d"></path><path d="M0 80L82 32L164 29L245 55L327 87L409 59L491 76L573 65L655 67L736 27L818 30L900 27L900 0L818 0L736 0L655 0L573 0L491 0L409 0L327 0L245 0L164 0L82 0L0 0Z" fill="#191e28"></path></svg>