<svg id="visual" viewBox="0 0 675 900" width="675" height="900" xmlns="http://www.w3.org/2000/svg" xmlns:xlink="http://www.w3.org/1999/xlink" version="1.1"><rect x="0" y="0" width="675" height="900" fill="#2d3549"></rect><path d="M0 554L75 670L150 606L225 711L300 632L375 593L450 712L525 584L600 633L675 634L675 0L600 0L525 0L450 0L375 0L300 0L225 0L150 0L75 0L0 0Z" fill="#272f3f"></path><path d="M0 596L75 589L150 543L225 511L300 459L375 492L450 524L525 461L600 554L675 543L675 0L600 0L525 0L450 0L375 0L300 0L225 0L150 0L75 0L0 0Z" fill="#242b3a"></path><path d="M0 444L75 352L150 411L225 396L300 501L375 361L450 495L525 412L600 397L675 387L675 0L600 0L525 0L450 0L375 0L300 0L225 0L150 0L75 0L0 0Z" fill="#212835"></path><path d="M0 353L75 360L150 320L225 369L300 284L375 330L450 343L525 287L600 279L675 328L675 0L600 0L525 0L450 0L375 0L300 0L225 0L150 0L75 0L0 0Z" fill="#1f2431"></path><path d="M0 212L75 246L150 186L225 228L300 281L375 204L450 171L525 265L600 211L675 254L675 0L600 0L525 0L450 0L375 0L300 0L225 0L150 0L75 0L0 0Z" fill="#1c212c"></path><path d="M0 98L75 130L150 136L225 155L300 64L375 128L450 172L525 58L600 84L675 149L675 0L600 0L525 0L450 0L375 0L300 0L225 0L150 0L75 0L0 0Z" fill="#191e28"></path></svg>