<svg id="visual" viewBox="0 0 900 450" width="900" height="450" xmlns="http://www.w3.org/2000/svg" xmlns:xlink="http://www.w3.org/1999/xlink" version="1.1"><path d="M0 69L60 55L120 96L180 42L240 15L300 28L360 69L420 60L480 87L540 64L600 28L660 28L720 91L780 60L840 73L900 28L900 0L840 0L780 0L720 0L660 0L600 0L540 0L480 0L420 0L360 0L300 0L240 0L180 0L120 0L60 0L0 0Z" fill="#191e28"></path><path d="M0 96L60 100L120 118L180 91L240 51L300 33L360 145L420 87L480 145L540 105L600 105L660 33L720 159L780 82L840 87L900 78L900 26L840 71L780 58L720 89L660 26L600 26L540 62L480 85L420 58L360 67L300 26L240 13L180 40L120 94L60 53L0 67Z" fill="#1d222e"></path><path d="M0 181L60 222L120 172L180 118L240 258L300 177L360 307L420 181L480 303L540 195L600 222L660 240L720 276L780 132L840 244L900 159L900 76L840 85L780 80L720 157L660 31L600 103L540 103L480 143L420 85L360 143L300 31L240 49L180 89L120 116L60 98L0 94Z" fill="#212735"></path><path d="M0 307L60 375L120 330L180 267L240 325L300 276L360 379L420 352L480 384L540 285L600 312L660 334L720 366L780 289L840 307L900 289L900 157L840 242L780 130L720 274L660 238L600 220L540 193L480 301L420 179L360 305L300 175L240 256L180 116L120 170L60 220L0 179Z" fill="#252b3b"></path><path d="M0 433L60 411L120 370L180 379L240 442L300 397L360 388L420 411L480 442L540 366L600 375L660 442L720 415L780 393L840 411L900 375L900 287L840 305L780 287L720 364L660 332L600 310L540 283L480 382L420 350L360 377L300 274L240 323L180 265L120 328L60 373L0 305Z" fill="#293042"></path><path d="M0 451L60 451L120 451L180 451L240 451L300 451L360 451L420 451L480 451L540 451L600 451L660 451L720 451L780 451L840 451L900 451L900 373L840 409L780 391L720 413L660 440L600 373L540 364L480 440L420 409L360 386L300 395L240 440L180 377L120 368L60 409L0 431Z" fill="#2d3549"></path></svg>