<svg id="visual" viewBox="0 0 675 900" width="675" height="900" xmlns="http://www.w3.org/2000/svg" xmlns:xlink="http://www.w3.org/1999/xlink" version="1.1"><rect x="0" y="0" width="675" height="900" fill="#2d3549"></rect><path d="M0 616L75 745L150 673L225 791L300 703L375 659L450 792L525 649L600 703L675 705L675 0L600 0L525 0L450 0L375 0L300 0L225 0L150 0L75 0L0 0Z" fill="#272f3f"></path><path d="M0 662L75 655L150 604L225 568L300 510L375 547L450 582L525 512L600 616L675 603L675 0L600 0L525 0L450 0L375 0L300 0L225 0L150 0L75 0L0 0Z" fill="#242b3a"></path><path d="M0 493L75 391L150 457L225 440L300 556L375 402L450 550L525 458L600 441L675 430L675 0L600 0L525 0L450 0L375 0L300 0L225 0L150 0L75 0L0 0Z" fill="#212835"></path><path d="M0 392L75 400L150 355L225 410L300 315L375 367L450 381L525 319L600 311L675 364L675 0L600 0L525 0L450 0L375 0L300 0L225 0L150 0L75 0L0 0Z" fill="#1f2431"></path><path d="M0 236L75 273L150 207L225 254L300 312L375 226L450 190L525 294L600 234L675 282L675 0L600 0L525 0L450 0L375 0L300 0L225 0L150 0L75 0L0 0Z" fill="#1c212c"></path><path d="M0 109L75 144L150 152L225 173L300 71L375 142L450 191L525 64L600 93L675 166L675 0L600 0L525 0L450 0L375 0L300 0L225 0L150 0L75 0L0 0Z" fill="#191e28"></path></svg>