<svg id="visual" viewBox="0 0 900 451" width="900" height="451" xmlns="http://www.w3.org/2000/svg" xmlns:xlink="http://www.w3.org/1999/xlink" version="1.1">
  <!-- <rect x="0" y="0" width="900" height="451" fill="#2d3549"></rect> -->
  <path d="M0 238L30 234.7C60 231.3 120 224.7 180 224.3C240 224 300 230 360 227.8C420 225.7 480 215.3 540 216.3C600 217.3 660 229.7 720 232.7C780 235.7 840 229.3 870 226.2L900 223L900 0L870 0C840 0 780 0 720 0C660 0 600 0 540 0C480 0 420 0 360 0C300 0 240 0 180 0C120 0 60 0 30 0L0 0Z" fill="#2d3549" stroke-linecap="round" stroke-linejoin="miter"></path>
</svg>
