<svg id="visual" viewBox="0 0 900 450" width="900" height="450" xmlns="http://www.w3.org/2000/svg" xmlns:xlink="http://www.w3.org/1999/xlink" version="1.1"><rect x="0" y="0" width="900" height="450" fill="#2d3549"></rect><path d="M0 223L30 226.2C60 229.3 120 235.7 180 232.7C240 229.7 300 217.3 360 216.3C420 215.3 480 225.7 540 227.8C600 230 660 224 720 224.3C780 224.7 840 231.3 870 234.7L900 238L900 451L870 451C840 451 780 451 720 451C660 451 600 451 540 451C480 451 420 451 360 451C300 451 240 451 180 451C120 451 60 451 30 451L0 451Z" fill="#191e28" stroke-linecap="round" stroke-linejoin="miter"></path></svg>