<svg xmlns="http://www.w3.org/2000/svg" version="1.1" xmlns:xlink="http://www.w3.org/1999/xlink" viewBox="0 0 800 800"><defs><linearGradient x1="50%" y1="0%" x2="50%" y2="100%" id="ffflurry-grad" gradientTransform="rotate(270)"><stop stop-color="hsl(220°, 23%, 13%)" stop-opacity="1" offset="0%"></stop><stop stop-color="hsl(275, 100%, 73%)" stop-opacity="1" offset="45%"></stop><stop stop-color="hsl(216, 100%, 39%)" stop-opacity="1" offset="100%"></stop></linearGradient></defs><rect width="100%" height="100%" fill="hsl(220°, 23%, 13%)"></rect><g fill="url(#ffflurry-grad)"><rect width="500" height="2" x="-101" y="47" rx="1" transform="rotate(41, 149, 48)" opacity="0.38"></rect><rect width="287" height="2" x="422.5" y="457" rx="1" transform="rotate(41, 566, 458)" opacity="0.73"></rect><rect width="254" height="2" x="497" y="514" rx="1" transform="rotate(41, 624, 515)" opacity="0.60"></rect><rect width="286" height="2" x="491" y="160" rx="1" transform="rotate(41, 634, 161)" opacity="0.23"></rect><rect width="391" height="2" x="266.5" y="184" rx="1" transform="rotate(41, 462, 185)" opacity="0.17"></rect><rect width="172" height="2" x="359" y="57" rx="1" transform="rotate(41, 445, 58)" opacity="0.59"></rect><rect width="654" height="2" x="-68" y="250" rx="1" transform="rotate(41, 259, 251)" opacity="0.80"></rect><rect width="379" height="2" x="-158.5" y="93" rx="1" transform="rotate(41, 31, 94)" opacity="0.51"></rect><rect width="521" height="2" x="98.5" y="202" rx="1" transform="rotate(41, 359, 203)" opacity="0.10"></rect><rect width="361" height="2" x="518.5" y="30" rx="1" transform="rotate(41, 699, 31)" opacity="0.19"></rect><rect width="134" height="2" x="-13" y="28" rx="1" transform="rotate(41, 54, 29)" opacity="0.31"></rect><rect width="431" height="2" x="293.5" y="755" rx="1" transform="rotate(41, 509, 756)" opacity="0.70"></rect><rect width="454" height="2" x="-107" y="439" rx="1" transform="rotate(41, 120, 440)" opacity="0.93"></rect><rect width="455" height="2" x="323.5" y="644" rx="1" transform="rotate(41, 551, 645)" opacity="0.82"></rect><rect width="285" height="2" x="470.5" y="20" rx="1" transform="rotate(41, 613, 21)" opacity="0.54"></rect><rect width="123" height="2" x="182.5" y="69" rx="1" transform="rotate(41, 244, 70)" opacity="0.30"></rect><rect width="141" height="2" x="-32.5" y="495" rx="1" transform="rotate(41, 38, 496)" opacity="0.73"></rect><rect width="641" height="2" x="-273.5" y="707" rx="1" transform="rotate(41, 47, 708)" opacity="0.74"></rect><rect width="365" height="2" x="90.5" y="337" rx="1" transform="rotate(41, 273, 338)" opacity="0.16"></rect><rect width="523" height="2" x="496.5" y="631" rx="1" transform="rotate(41, 758, 632)" opacity="0.88"></rect><rect width="85" height="2" x="301.5" y="280" rx="1" transform="rotate(41, 344, 281)" opacity="0.87"></rect><rect width="186" height="2" x="608" y="504" rx="1" transform="rotate(41, 701, 505)" opacity="0.43"></rect><rect width="155" height="2" x="164.5" y="418" rx="1" transform="rotate(41, 242, 419)" opacity="0.39"></rect><rect width="235" height="2" x="652.5" y="489" rx="1" transform="rotate(41, 770, 490)" opacity="0.82"></rect><rect width="438" height="2" x="427" y="305" rx="1" transform="rotate(41, 646, 306)" opacity="0.24"></rect><rect width="100" height="2" x="550" y="573" rx="1" transform="rotate(41, 600, 574)" opacity="0.63"></rect><rect width="461" height="2" x="284.5" y="80" rx="1" transform="rotate(41, 515, 81)" opacity="0.45"></rect><rect width="249" height="2" x="159.5" y="480" rx="1" transform="rotate(41, 284, 481)" opacity="0.46"></rect><rect width="401" height="2" x="428.5" y="388" rx="1" transform="rotate(41, 629, 389)" opacity="0.09"></rect><rect width="324" height="2" x="558" y="208" rx="1" transform="rotate(41, 720, 209)" opacity="0.72"></rect><rect width="48" height="2" x="567" y="72" rx="1" transform="rotate(41, 591, 73)" opacity="0.57"></rect><rect width="327" height="2" x="130.5" y="623" rx="1" transform="rotate(41, 294, 624)" opacity="0.41"></rect><rect width="338" height="2" x="163" y="137" rx="1" transform="rotate(41, 332, 138)" opacity="0.22"></rect><rect width="86" height="2" x="736" y="566" rx="1" transform="rotate(41, 779, 567)" opacity="0.28"></rect><rect width="154" height="2" x="29" y="591" rx="1" transform="rotate(41, 106, 592)" opacity="0.46"></rect><rect width="282" height="2" x="-105" y="304" rx="1" transform="rotate(41, 36, 305)" opacity="0.39"></rect><rect width="318" height="2" x="404" y="196" rx="1" transform="rotate(41, 563, 197)" opacity="0.98"></rect><rect width="273" height="2" x="231.5" y="18" rx="1" transform="rotate(41, 368, 19)" opacity="0.81"></rect><rect width="309" height="2" x="24.5" y="485" rx="1" transform="rotate(41, 179, 486)" opacity="0.19"></rect><rect width="349" height="2" x="265.5" y="594" rx="1" transform="rotate(41, 440, 595)" opacity="0.83"></rect><rect width="408" height="2" x="444" y="761" rx="1" transform="rotate(41, 648, 762)" opacity="0.93"></rect><rect width="310" height="2" x="221" y="746" rx="1" transform="rotate(41, 376, 747)" opacity="0.63"></rect><rect width="135" height="2" x="429.5" y="364" rx="1" transform="rotate(41, 497, 365)" opacity="0.58"></rect><rect width="331" height="2" x="568.5" y="556" rx="1" transform="rotate(41, 734, 557)" opacity="0.21"></rect><rect width="532" height="2" x="465" y="343" rx="1" transform="rotate(41, 731, 344)" opacity="0.82"></rect><rect width="516" height="2" x="448" y="110" rx="1" transform="rotate(41, 706, 111)" opacity="0.90"></rect><rect width="313" height="2" x="190.5" y="67" rx="1" transform="rotate(41, 347, 68)" opacity="0.74"></rect><rect width="208" height="2" x="204" y="552" rx="1" transform="rotate(41, 308, 553)" opacity="0.16"></rect><rect width="544" height="2" x="225" y="474" rx="1" transform="rotate(41, 497, 475)" opacity="0.90"></rect><rect width="250" height="2" x="497" y="686" rx="1" transform="rotate(41, 622, 687)" opacity="0.54"></rect><rect width="241" height="2" x="565.5" y="579" rx="1" transform="rotate(41, 686, 580)" opacity="0.46"></rect><rect width="381" height="2" x="-78.5" y="132" rx="1" transform="rotate(41, 112, 133)" opacity="0.43"></rect><rect width="122" height="2" x="193" y="675" rx="1" transform="rotate(41, 254, 676)" opacity="0.23"></rect><rect width="610" height="2" x="-107" y="196" rx="1" transform="rotate(41, 198, 197)" opacity="0.18"></rect><rect width="124" height="2" x="342" y="522" rx="1" transform="rotate(41, 404, 523)" opacity="0.60"></rect><rect width="362" height="2" x="468" y="449" rx="1" transform="rotate(41, 649, 450)" opacity="0.97"></rect><rect width="474" height="2" x="106" y="372" rx="1" transform="rotate(41, 343, 373)" opacity="0.31"></rect><rect width="639" height="2" x="-212.5" y="239" rx="1" transform="rotate(41, 107, 240)" opacity="0.09"></rect><rect width="701" height="2" x="-166.5" y="337" rx="1" transform="rotate(41, 184, 338)" opacity="0.13"></rect><rect width="197" height="2" x="451.5" y="283" rx="1" transform="rotate(41, 550, 284)" opacity="0.61"></rect><rect width="346" height="2" x="599" y="76" rx="1" transform="rotate(41, 772, 77)" opacity="0.10"></rect><rect width="752" height="2" x="-225" y="731" rx="1" transform="rotate(41, 151, 732)" opacity="0.51"></rect><rect width="466" height="2" x="29" y="758" rx="1" transform="rotate(41, 262, 759)" opacity="0.40"></rect><rect width="153" height="2" x="386.5" y="675" rx="1" transform="rotate(41, 463, 676)" opacity="0.25"></rect><rect width="206" height="2" x="268" y="634" rx="1" transform="rotate(41, 371, 635)" opacity="0.25"></rect><rect width="61" height="2" x="529.5" y="376" rx="1" transform="rotate(41, 560, 377)" opacity="0.86"></rect><rect width="221" height="2" x="-79.5" y="195" rx="1" transform="rotate(41, 31, 196)" opacity="0.88"></rect><rect width="244" height="2" x="384" y="554" rx="1" transform="rotate(41, 506, 555)" opacity="0.88"></rect><rect width="124" height="2" x="374" y="289" rx="1" transform="rotate(41, 436, 290)" opacity="0.91"></rect><rect width="377" height="2" x="563.5" y="730" rx="1" transform="rotate(41, 752, 731)" opacity="0.15"></rect><rect width="58" height="2" x="182" y="569" rx="1" transform="rotate(41, 211, 570)" opacity="0.32"></rect><rect width="378" height="2" x="579" y="273" rx="1" transform="rotate(41, 768, 274)" opacity="0.24"></rect><rect width="347" height="2" x="254.5" y="401" rx="1" transform="rotate(41, 428, 402)" opacity="0.46"></rect><rect width="106" height="2" x="690" y="418" rx="1" transform="rotate(41, 743, 419)" opacity="0.55"></rect><rect width="140" height="2" x="608" y="639" rx="1" transform="rotate(41, 678, 640)" opacity="0.29"></rect><rect width="232" height="2" x="-36" y="364" rx="1" transform="rotate(41, 80, 365)" opacity="0.43"></rect><rect width="387" height="2" x="169.5" y="460" rx="1" transform="rotate(41, 363, 461)" opacity="0.16"></rect></g></svg>