<svg id="visual" viewBox="0 0 960 540" width="960" height="540" xmlns="http://www.w3.org/2000/svg" xmlns:xlink="http://www.w3.org/1999/xlink" version="1.1"><rect x="0" y="0" width="960" height="540" fill="#1f2532"></rect><defs><linearGradient id="grad1_0" x1="43.8%" y1="0%" x2="100%" y2="100%"><stop offset="14.444444444444446%" stop-color="#ff77ff" stop-opacity="1"></stop><stop offset="85.55555555555554%" stop-color="#ff77ff" stop-opacity="1"></stop></linearGradient></defs><defs><linearGradient id="grad1_1" x1="43.8%" y1="0%" x2="100%" y2="100%"><stop offset="14.444444444444446%" stop-color="#ff77ff" stop-opacity="1"></stop><stop offset="85.55555555555554%" stop-color="#9467c8" stop-opacity="1"></stop></linearGradient></defs><defs><linearGradient id="grad1_2" x1="43.8%" y1="0%" x2="100%" y2="100%"><stop offset="14.444444444444446%" stop-color="#464a7f" stop-opacity="1"></stop><stop offset="85.55555555555554%" stop-color="#9467c8" stop-opacity="1"></stop></linearGradient></defs><defs><linearGradient id="grad1_3" x1="43.8%" y1="0%" x2="100%" y2="100%"><stop offset="14.444444444444446%" stop-color="#464a7f" stop-opacity="1"></stop><stop offset="85.55555555555554%" stop-color="#1f2532" stop-opacity="1"></stop></linearGradient></defs><defs><linearGradient id="grad2_0" x1="0%" y1="0%" x2="56.3%" y2="100%"><stop offset="14.444444444444446%" stop-color="#ff77ff" stop-opacity="1"></stop><stop offset="85.55555555555554%" stop-color="#ff77ff" stop-opacity="1"></stop></linearGradient></defs><defs><linearGradient id="grad2_1" x1="0%" y1="0%" x2="56.3%" y2="100%"><stop offset="14.444444444444446%" stop-color="#9467c8" stop-opacity="1"></stop><stop offset="85.55555555555554%" stop-color="#ff77ff" stop-opacity="1"></stop></linearGradient></defs><defs><linearGradient id="grad2_2" x1="0%" y1="0%" x2="56.3%" y2="100%"><stop offset="14.444444444444446%" stop-color="#9467c8" stop-opacity="1"></stop><stop offset="85.55555555555554%" stop-color="#464a7f" stop-opacity="1"></stop></linearGradient></defs><defs><linearGradient id="grad2_3" x1="0%" y1="0%" x2="56.3%" y2="100%"><stop offset="14.444444444444446%" stop-color="#1f2532" stop-opacity="1"></stop><stop offset="85.55555555555554%" stop-color="#464a7f" stop-opacity="1"></stop></linearGradient></defs><g transform="translate(960, 0)"><path d="M0 297C-41.8 295.7 -83.5 294.3 -113.7 274.4C-143.8 254.5 -162.3 215.9 -186.7 186.7C-211 157.4 -241.2 137.5 -260.5 107.9C-279.9 78.4 -288.4 39.2 -297 0L0 0Z" fill="#2e3858"></path><path d="M0 222.8C-31.3 221.7 -62.6 220.7 -85.2 205.8C-107.9 190.8 -121.7 161.9 -140 140C-158.3 118.1 -180.9 103.1 -195.4 80.9C-209.9 58.8 -216.3 29.4 -222.7 0L0 0Z" fill="#6959a5"></path><path d="M0 148.5C-20.9 147.8 -41.8 147.2 -56.8 137.2C-71.9 127.2 -81.2 108 -93.3 93.3C-105.5 78.7 -120.6 68.7 -130.3 54C-139.9 39.2 -144.2 19.6 -148.5 0L0 0Z" fill="#c771e6"></path><path d="M0 74.3C-10.4 73.9 -20.9 73.6 -28.4 68.6C-36 63.6 -40.6 54 -46.7 46.7C-52.8 39.4 -60.3 34.4 -65.1 27C-70 19.6 -72.1 9.8 -74.2 0L0 0Z" fill="#ff77ff"></path></g><g transform="translate(0, 540)"><path d="M0 -297C37 -282.5 74 -268 102.9 -248.5C131.9 -229 152.7 -204.5 183.1 -183.1C213.6 -161.8 253.8 -143.6 274.4 -113.7C295 -83.7 296 -41.8 297 0L0 0Z" fill="#2e3858"></path><path d="M0 -222.7C27.8 -211.9 55.5 -201 77.2 -186.4C98.9 -171.8 114.5 -153.4 137.4 -137.4C160.2 -121.3 190.4 -107.7 205.8 -85.2C221.2 -62.7 222 -31.4 222.8 0L0 0Z" fill="#6959a5"></path><path d="M0 -148.5C18.5 -141.3 37 -134 51.5 -124.3C65.9 -114.5 76.3 -102.2 91.6 -91.6C106.8 -80.9 126.9 -71.8 137.2 -56.8C147.5 -41.8 148 -20.9 148.5 0L0 0Z" fill="#c771e6"></path><path d="M0 -74.2C9.3 -70.6 18.5 -67 25.7 -62.1C33 -57.3 38.2 -51.1 45.8 -45.8C53.4 -40.4 63.5 -35.9 68.6 -28.4C73.7 -20.9 74 -10.5 74.3 0L0 0Z" fill="#ff77ff"></path></g></svg>