<svg id="visual" viewBox="0 0 900 600" width="900" height="600" xmlns="http://www.w3.org/2000/svg" xmlns:xlink="http://www.w3.org/1999/xlink" version="1.1"><rect x="0" y="0" width="900" height="600" fill="#1f2532"></rect><path d="M0 432L21.5 438.5C43 445 86 458 128.8 463.3C171.7 468.7 214.3 466.3 257.2 451C300 435.7 343 407.3 385.8 398.3C428.7 389.3 471.3 399.7 514.2 423.5C557 447.3 600 484.7 642.8 503.3C685.7 522 728.3 522 771.2 516.3C814 510.7 857 499.3 878.5 493.7L900 488L900 601L878.5 601C857 601 814 601 771.2 601C728.3 601 685.7 601 642.8 601C600 601 557 601 514.2 601C471.3 601 428.7 601 385.8 601C343 601 300 601 257.2 601C214.3 601 171.7 601 128.8 601C86 601 43 601 21.5 601L0 601Z" fill="#ff77ff" stroke-linecap="round" stroke-linejoin="miter"></path></svg>